<svg width="29" height="44" viewBox="0 0 29 44" fill="none" xmlns="http://www.w3.org/2000/svg">
    <path
        d="M0.339844 14.6035C0.339844 10.1928 3.91545 6.61719 8.32619 6.61719H20.5495C24.9603 6.61719 28.5359 10.1928 28.5359 14.6035V40.1669H0.339844V14.6035Z"
        fill="#D0D5D4" />
    <path
        d="M3.55078 15.4622C3.55078 12.1541 6.23249 9.47241 9.54054 9.47241H19.3326C22.6407 9.47241 25.3224 12.1541 25.3224 15.4622V36.9546H3.55078V15.4622Z"
        fill="#DFE1E1" />
    <path
        d="M22.4712 23.5703C22.4712 28.0054 18.8758 31.6008 14.4407 31.6008C10.0055 31.6008 6.41016 28.0054 6.41016 23.5703C6.41016 19.1352 10.0055 15.5398 14.4407 15.5398C18.8758 15.5398 22.4712 19.1352 22.4712 23.5703Z"
        fill="#C2C7C9" />
    <g opacity="0.35">
        <path d="M14.4349 18.1284L14.7764 15.54H14.0977L14.4349 18.1284Z" fill="#F1F1F1" />
        <path d="M13.495 18.2127L13.3812 15.6033L12.7109 15.7213L13.495 18.2127Z" fill="#F1F1F1" />
        <path d="M12.5806 18.4571L12.0115 15.9067L11.375 16.1386L12.5806 18.4571Z" fill="#F1F1F1" />
        <path d="M11.7181 18.8576L10.7149 16.4463L10.1289 16.7877L11.7181 18.8576Z" fill="#F1F1F1" />
        <path d="M10.9379 19.4014L9.53413 17.2009L9.01562 17.6393L10.9379 19.4014Z" fill="#F1F1F1" />
        <path d="M10.2669 20.0717L8.50482 18.1494L8.06641 18.6679L10.2669 20.0717Z" fill="#F1F1F1" />
        <path d="M9.71986 20.8517L7.65005 19.2625L7.30859 19.8484L9.71986 20.8517Z" fill="#F1F1F1" />
        <path d="M9.32772 21.7117L7.0092 20.5061L6.77734 21.1426L9.32772 21.7117Z" fill="#F1F1F1" />
        <path d="M9.07814 22.6264L6.58678 21.8423L6.46875 22.5125L9.07814 22.6264Z" fill="#F1F1F1" />
        <path d="M8.99456 23.5706L6.40625 23.2334V23.9121L8.99456 23.5706Z" fill="#F1F1F1" />
        <path d="M9.07814 24.5149L6.46875 24.6329L6.58678 25.299L9.07814 24.5149Z" fill="#F1F1F1" />
        <path d="M9.32772 25.4338L6.77734 25.9987L7.0092 26.6395L9.32772 25.4338Z" fill="#F1F1F1" />
        <path d="M9.71986 26.2937L7.30859 27.2928L7.65005 27.8829L9.71986 26.2937Z" fill="#F1F1F1" />
        <path d="M10.2669 27.0693L8.06641 28.4731L8.50482 28.9958L10.2669 27.0693Z" fill="#F1F1F1" />
        <path d="M10.9379 27.7397L9.01562 29.506L9.53413 29.9445L10.9379 27.7397Z" fill="#F1F1F1" />
        <path d="M11.7181 28.2832L10.1289 30.3572L10.7149 30.6945L11.7181 28.2832Z" fill="#F1F1F1" />
        <path d="M12.5806 28.6841L11.375 31.0026L12.0115 31.2345L12.5806 28.6841Z" fill="#F1F1F1" />
        <path d="M13.495 28.9324L12.7109 31.4195L13.3812 31.5375L13.495 28.9324Z" fill="#F1F1F1" />
        <path d="M14.4349 29.0127L14.0977 31.601H14.7764L14.4349 29.0127Z" fill="#F1F1F1" />
        <path d="M15.3828 28.9324L15.5008 31.5375L16.1669 31.4195L15.3828 28.9324Z" fill="#F1F1F1" />
        <path d="M16.3008 28.6841L16.8657 31.2345L17.5064 31.0026L16.3008 28.6841Z" fill="#F1F1F1" />
        <path d="M17.1602 28.2832L18.1592 30.6945L18.7494 30.3572L17.1602 28.2832Z" fill="#F1F1F1" />
        <path d="M17.9375 27.7397L19.3413 29.9445L19.864 29.506L17.9375 27.7397Z" fill="#F1F1F1" />
        <path d="M18.6055 27.0693L20.3718 28.9958L20.8102 28.4731L18.6055 27.0693Z" fill="#F1F1F1" />
        <path d="M19.1484 26.2937L21.2225 27.8829L21.5597 27.2928L19.1484 26.2937Z" fill="#F1F1F1" />
        <path d="M19.5508 25.4338L21.8693 26.6395L22.1012 25.9987L19.5508 25.4338Z" fill="#F1F1F1" />
        <path d="M19.8008 24.5149L22.2879 25.299L22.406 24.6329L19.8008 24.5149Z" fill="#F1F1F1" />
        <path d="M19.8828 23.5706L22.4711 23.9121V23.2334L19.8828 23.5706Z" fill="#F1F1F1" />
        <path d="M19.8008 22.6264L22.406 22.5125L22.2879 21.8423L19.8008 22.6264Z" fill="#F1F1F1" />
        <path d="M19.5508 21.7117L22.1012 21.1426L21.8693 20.5061L19.5508 21.7117Z" fill="#F1F1F1" />
        <path d="M19.1484 20.8517L21.5597 19.8484L21.2225 19.2625L19.1484 20.8517Z" fill="#F1F1F1" />
        <path d="M18.6055 20.0717L20.8102 18.6679L20.3718 18.1494L18.6055 20.0717Z" fill="#F1F1F1" />
        <path d="M17.9375 19.4014L19.864 17.6393L19.3413 17.2009L17.9375 19.4014Z" fill="#F1F1F1" />
        <path d="M17.1602 18.8576L18.7494 16.7877L18.1592 16.4463L17.1602 18.8576Z" fill="#F1F1F1" />
        <path d="M16.3008 18.4571L17.5064 16.1386L16.8657 15.9067L16.3008 18.4571Z" fill="#F1F1F1" />
        <path d="M15.3828 18.2127L16.1669 15.7213L15.5008 15.6033L15.3828 18.2127Z" fill="#F1F1F1" />
    </g>
    <path
        d="M20.3289 23.5707C20.3289 26.8231 17.6923 29.4597 14.4398 29.4597C11.1874 29.4597 8.55078 26.8231 8.55078 23.5707C8.55078 20.3183 11.1874 17.6816 14.4398 17.6816C17.6923 17.6816 20.3289 20.3183 20.3289 23.5707Z"
        fill="#F8F8F8" />
    <path fill-rule="evenodd" clip-rule="evenodd"
        d="M14.4398 29.0604C17.4717 29.0604 19.9296 26.6026 19.9296 23.5707C19.9296 20.5388 17.4717 18.081 14.4398 18.081C11.4079 18.081 8.9501 20.5388 8.9501 23.5707C8.9501 26.6026 11.4079 29.0604 14.4398 29.0604ZM14.4398 29.4597C17.6923 29.4597 20.3289 26.8231 20.3289 23.5707C20.3289 20.3183 17.6923 17.6816 14.4398 17.6816C11.1874 17.6816 8.55078 20.3183 8.55078 23.5707C8.55078 26.8231 11.1874 29.4597 14.4398 29.4597Z"
        fill="#F2F2F2" />
    <path d="M11.4023 40.167H17.8268L17.2914 42.3085H11.9377L11.4023 40.167Z" fill="#A2A5A2" />
    <path d="M13.5469 42.3083H15.3314L15.1827 43.0222H13.6956L13.5469 42.3083Z" fill="#939191" />
    <path d="M0.339844 36.241H6.40735V41.9516H3.3736L0.339844 40.4488V36.241Z" fill="#A2A5A2" />
    <path d="M28.5391 36.241H22.4716V41.9516H25.5053L28.5391 40.4488V36.241Z" fill="#A2A5A2" />
    <path d="M3.55078 36.241H25.3224V40.5239H3.55078V36.241Z" fill="#BEC5C7" />
    <path d="M3.55078 37.3115H25.3224V40.5237H3.55078V37.3115Z" fill="#B6B6B6" />
    <path
        d="M18.1461 6.88145C18.1461 7.17072 16.2701 7.40523 13.9559 7.40523C11.6417 7.40523 9.76562 7.17072 9.76562 6.88145C9.76562 6.59217 11.6417 6.35767 13.9559 6.35767C16.2701 6.35767 18.1461 6.59217 18.1461 6.88145Z"
        fill="#878787" />
    <path fill-rule="evenodd" clip-rule="evenodd"
        d="M17.1018 0.876953H10.8164V6.81313C10.8164 7.00598 12.2234 7.16231 13.9591 7.16231C15.6947 7.16231 17.1018 7.00598 17.1018 6.81313V0.876953Z"
        fill="#B9B9B9" />
    <path
        d="M11.3438 3.26002C11.3438 2.15733 12.4233 1.26343 13.7549 1.26343H14.1049C15.4366 1.26343 16.5161 2.15733 16.5161 3.26001V4.62052C16.5161 5.7232 15.4365 6.61711 14.1049 6.61711H13.7549C12.4233 6.61711 11.3438 5.72321 11.3438 4.62052V3.26002Z"
        fill="#C7C9CA" />
</svg>