<svg width="27" height="27" viewBox="0 0 27 27" fill="none" xmlns="http://www.w3.org/2000/svg">
<path fill-rule="evenodd" clip-rule="evenodd" d="M22.8122 19.1528C21.8594 22.0398 18.9175 25.0017 13.5659 25.0017C8.17507 25.0017 5.01067 22.3577 3.99652 19.2969L4.211 19.1807C4.39013 19.1444 4.60104 19.0739 4.86024 18.9874C5.70891 18.7039 7.07523 18.2476 9.53856 18.2476C11.6258 18.2476 12.8958 18.7508 14.117 19.2346C15.2475 19.6826 16.3361 20.1139 17.9925 20.1139C19.6692 20.1139 21.4309 19.6535 22.8122 19.1528Z" fill="#94DFFF"/>
<path d="M3.63678 17.0818C3.63678 13.2064 11.3346 0.829305 13.5659 0.829407C15.7973 0.829508 23.1605 13.7596 23.1605 17.0818C23.1605 20.4041 20.2334 25.0017 13.5659 25.0017C6.89845 25.0017 3.63678 20.9572 3.63678 17.0818Z" stroke="#858585" stroke-width="0.82944"/>
<path d="M13.0205 17.0922H17.395V18.9883H9.8554V17.5849L13.1549 13.8823C13.7222 13.2453 14.1154 12.7476 14.3344 12.3893C14.5633 12.021 14.6778 11.6428 14.6778 11.2546C14.6778 10.8266 14.5583 10.4832 14.3194 10.2244C14.0806 9.96566 13.7571 9.83627 13.349 9.83627C12.931 9.83627 12.5627 9.99054 12.2442 10.2991C11.9257 10.5977 11.6818 11.0257 11.5126 11.5831L9.81061 10.5977C10.0694 9.71185 10.5372 9.03503 11.214 8.56722C11.8908 8.08946 12.6722 7.85059 13.558 7.85059C14.2547 7.85059 14.8569 7.99491 15.3645 8.28355C15.8821 8.56225 16.2753 8.95042 16.544 9.44809C16.8227 9.94575 16.962 10.5131 16.962 11.1501C16.962 11.7772 16.8078 12.3644 16.4992 12.9118C16.2006 13.4493 15.6631 14.151 14.8868 15.0169L13.0205 17.0922Z" fill="#858585"/>
</svg>
