<svg width="27" height="27" viewBox="0 0 27 27" fill="none" xmlns="http://www.w3.org/2000/svg">
<path fill-rule="evenodd" clip-rule="evenodd" d="M11.6569 24.7652C9.0705 24.4335 7.11771 23.4287 5.7869 22.0894C6.93654 21.9785 8.56867 21.8764 10.5275 21.8764C12.6147 21.8764 13.6181 22.2102 14.5829 22.5312C15.4761 22.8283 16.3362 23.1145 17.9925 23.1145C18.6502 23.1145 19.321 23.0518 19.9767 22.9489C18.7925 23.8371 17.262 24.5058 15.3588 24.7652H11.6569Z" fill="#94DFFF"/>
<path d="M3.63678 17.0022C3.63678 13.1457 11.3346 0.829306 13.5659 0.829407C15.7973 0.829508 23.1605 13.6962 23.1605 17.0022C23.1605 20.3081 20.2334 24.8832 13.5659 24.8832C6.89845 24.8832 3.63678 20.8586 3.63678 17.0022Z" stroke="#858585" stroke-width="0.82944"/>
<path d="M9.60825 11.1825V9.10728L12.9525 7.21118H14.6396V18.1548H12.4449V9.59997L9.60825 11.1825Z" fill="#858585"/>
</svg>
