<svg width="27" height="27" viewBox="0 0 27 27" fill="none" xmlns="http://www.w3.org/2000/svg">
<path d="M4.0105 17.0818C4.0105 13.2064 11.7083 0.829305 13.9396 0.829407C16.171 0.829508 23.5343 13.7596 23.5343 17.0818C23.5343 20.4041 20.6071 25.0017 13.9396 25.0017C7.27217 25.0017 4.0105 20.9572 4.0105 17.0818Z" fill="#94DFFF"/>
<path d="M4.0105 17.0818C4.0105 13.2064 11.7083 0.829305 13.9396 0.829407C16.171 0.829508 23.5343 13.7596 23.5343 17.0818C23.5343 20.4041 20.6071 25.0017 13.9396 25.0017C7.27216 25.0017 4.0105 20.9572 4.0105 17.0818Z" stroke="#858585" stroke-width="0.82944"/>
<path d="M14.2901 11.8817C14.9172 11.8817 15.4895 12.031 16.007 12.3296C16.5246 12.6182 16.9327 13.0362 17.2313 13.5837C17.5299 14.1212 17.6792 14.7432 17.6792 15.4499C17.6792 16.2163 17.51 16.8832 17.1716 17.4505C16.8431 18.0079 16.3902 18.4359 15.813 18.7345C15.2357 19.0231 14.5987 19.1675 13.9019 19.1675C13.0758 19.1675 12.3592 18.9784 11.752 18.6001C11.1548 18.2219 10.7318 17.6496 10.483 16.8832L12.2298 15.8829C12.3592 16.3308 12.5682 16.6692 12.8568 16.8981C13.1455 17.127 13.4839 17.2415 13.8721 17.2415C14.3598 17.2415 14.733 17.0823 14.9918 16.7638C15.2605 16.4353 15.3949 16.0222 15.3949 15.5246C15.3949 15.0269 15.2556 14.6138 14.9769 14.2854C14.7081 13.947 14.32 13.7778 13.8123 13.7778C13.1554 13.7778 12.6329 14.1013 12.2447 14.7482L10.692 13.9868L11.4385 8.04468H17.1716V9.89599H13.2599L12.9613 12.1504C13.3893 11.9712 13.8323 11.8817 14.2901 11.8817Z" fill="#858585"/>
</svg>
