<svg width="27" height="27" viewBox="0 0 27 27" fill="none" xmlns="http://www.w3.org/2000/svg">
<path fill-rule="evenodd" clip-rule="evenodd" d="M8.74032 6.67816C6.32977 10.4368 4.09467 14.9936 4.09467 17.0818C4.09467 20.5673 6.73299 24.1895 12.1145 24.8831H15.8169C21.2191 24.1429 23.6184 20.0897 23.6184 17.0818C23.6184 15.5216 21.9944 11.8423 20.0407 8.37848C19.5118 8.45627 18.9769 8.50168 18.4504 8.50168C16.794 8.50168 15.7054 8.07037 14.5749 7.62244C13.3537 7.13863 12.0837 6.63544 9.99644 6.63544C9.54154 6.63544 9.12405 6.651 8.74032 6.67816Z" fill="#94DFFF"/>
<path d="M4.09467 17.0818C4.09467 13.2064 11.7924 0.829305 14.0238 0.829407C16.2552 0.829508 23.6184 13.7596 23.6184 17.0818C23.6184 20.4041 20.6913 25.0017 14.0238 25.0017C7.35633 25.0017 4.09467 20.9572 4.09467 17.0818Z" stroke="#858585" stroke-width="0.82944"/>
<path d="M16.4124 12.3594V14.9124H17.8904V16.7638H16.4124V18.9883H14.2923V16.7638H9.60431V15.2857L13.3667 8.04468H15.636L12.0379 14.9124H14.2923V12.3594H16.4124Z" fill="#858585"/>
</svg>
