<svg width="27" height="27" viewBox="0 0 27 27" fill="none" xmlns="http://www.w3.org/2000/svg">
<path fill-rule="evenodd" clip-rule="evenodd" d="M4.73682 13.2224C4.06004 14.7969 3.63678 16.1731 3.63678 17.0818C3.63678 20.5674 6.27529 24.1897 11.6572 24.8832H15.3585C20.761 24.1432 23.1605 20.0898 23.1605 17.0818C23.1605 16.3231 22.7765 15.0633 22.1573 13.5709C20.897 13.9768 19.4142 14.3078 17.9925 14.3078C16.3361 14.3078 15.2475 13.8765 14.117 13.4286C12.8958 12.9448 11.6258 12.4416 9.53856 12.4416C7.07523 12.4416 5.70891 12.8979 4.86024 13.1813C4.81783 13.1955 4.77672 13.2092 4.73682 13.2224Z" fill="#94DFFF"/>
<path d="M3.63678 17.0818C3.63678 13.2064 11.3346 0.829305 13.5659 0.829407C15.7973 0.829508 23.1605 13.7596 23.1605 17.0818C23.1605 20.4041 20.2334 25.0017 13.5659 25.0017C6.89845 25.0017 3.63678 20.9572 3.63678 17.0818Z" stroke="#858585" stroke-width="0.82944"/>
<path d="M15.4392 13.2851C16.0464 13.514 16.5092 13.8524 16.8277 14.3003C17.1462 14.7383 17.3055 15.2857 17.3055 15.9426C17.3055 16.6194 17.1313 17.2017 16.7829 17.6894C16.4445 18.1672 15.9817 18.5354 15.3944 18.7942C14.8171 19.0431 14.1752 19.1675 13.4685 19.1675C12.5627 19.1675 11.7714 18.9535 11.0946 18.5255C10.4277 18.0975 9.95496 17.4754 9.67627 16.6592L11.3932 15.6739C11.5525 16.1914 11.8162 16.5846 12.1845 16.8533C12.5528 17.1121 12.9658 17.2415 13.4237 17.2415C13.8716 17.2415 14.2448 17.1121 14.5434 16.8533C14.852 16.5945 15.0063 16.2362 15.0063 15.7784C15.0063 14.7731 14.2399 14.2705 12.707 14.2705H12.3039V12.4789H12.8862C13.4535 12.4789 13.8865 12.3445 14.1851 12.0758C14.4937 11.7971 14.6479 11.4537 14.6479 11.0456C14.6479 10.6674 14.5235 10.3638 14.2747 10.1349C14.0259 9.90594 13.7024 9.79148 13.3042 9.79148C12.8763 9.79148 12.503 9.93082 12.1845 10.2095C11.8759 10.4783 11.6371 10.8664 11.4679 11.374L9.82557 10.4335C10.0844 9.59739 10.5372 8.96038 11.1842 8.52243C11.8312 8.07453 12.5976 7.85059 13.4834 7.85059C14.1702 7.85059 14.7724 7.97998 15.2899 8.23876C15.8174 8.4876 16.2255 8.84094 16.5142 9.29879C16.8028 9.75664 16.9471 10.2842 16.9471 10.8814C16.9471 11.4387 16.8178 11.9215 16.559 12.3296C16.3101 12.7376 15.9369 13.0562 15.4392 13.2851Z" fill="#858585"/>
</svg>
